HIERARCHY
ROOT Hips
{
	OFFSET 0.000000 0.000000 0.000000
	CHANNELS 6 Xposition Yposition Zposition Zrotation Yrotation Xrotation 
	JOINT LowerBack
	{
		OFFSET 0.000000 0.000000 0.000000
		CHANNELS 3 Zrotation Yrotation Xrotation
		JOINT Spine
		{
			OFFSET 0.028270 2.035590 -0.193380
			CHANNELS 3 Zrotation Yrotation Xrotation
			JOINT Spine1
			{
				OFFSET 0.056720 2.048850 -0.042750
				CHANNELS 3 Zrotation Yrotation Xrotation
				JOINT Neck
				{
					OFFSET 0.000000 0.000000 0.000000
					CHANNELS 3 Zrotation Yrotation Xrotation
					JOINT Neck1
					{
						OFFSET -0.054170 1.746240 0.172020
						CHANNELS 3 Zrotation Yrotation Xrotation
						JOINT Head
						{
							OFFSET 0.104070 1.761360 -0.123970
							CHANNELS 3 Zrotation Yrotation Xrotation
							End Site
							{
								OFFSET 0.000000 0.000000 0.000000
							}
						}
					}
				}
				JOINT LeftShoulder
				{
					OFFSET 0.000000 0.000000 0.000000
					CHANNELS 3 Zrotation Yrotation Xrotation
					JOINT LeftArm
					{
						OFFSET 3.362410 1.200890 -0.311210
						CHANNELS 3 Zrotation Yrotation Xrotation
						JOINT LeftForeArm
						{
							OFFSET 4.983000 -0.000000 -0.000000
							CHANNELS 3 Zrotation Yrotation Xrotation
							JOINT LeftHand
							{
								OFFSET 3.483560 -0.000000 -0.000000
								CHANNELS 3 Zrotation Yrotation Xrotation
								JOINT LeftFingerBase
								{
									OFFSET 0.000000 0.000000 0.000000
									CHANNELS 3 Zrotation Yrotation Xrotation
									JOINT LeftHandIndex1
									{
										OFFSET 0.715260 -0.000000 -0.000000
										CHANNELS 3 Zrotation Yrotation Xrotation
										End Site
										{
											OFFSET 0.000000 0.000000 0.000000
										}
									}
								}
								JOINT LThumb
								{
									OFFSET 0.000000 0.000000 0.000000
									CHANNELS 3 Zrotation Yrotation Xrotation
									End Site
									{
										OFFSET 0.000000 0.000000 0.000000
									}
								}
							}
						}
					}
				}
				JOINT RightShoulder
				{
					OFFSET 0.000000 0.000000 0.000000
					CHANNELS 3 Zrotation Yrotation Xrotation
					JOINT RightArm
					{
						OFFSET -3.136600 1.374050 -0.404650
						CHANNELS 3 Zrotation Yrotation Xrotation
						JOINT RightForeArm
						{
							OFFSET -5.241900 -0.000000 -0.000000
							CHANNELS 3 Zrotation Yrotation Xrotation
							JOINT RightHand
							{
								OFFSET -3.444170 -0.000000 -0.000000
								CHANNELS 3 Zrotation Yrotation Xrotation
								JOINT RightFingerBase
								{
									OFFSET 0.000000 0.000000 0.000000
									CHANNELS 3 Zrotation Yrotation Xrotation
									JOINT RightHandIndex1
									{
										OFFSET -0.622530 -0.000000 -0.000000
										CHANNELS 3 Zrotation Yrotation Xrotation
										End Site
										{
											OFFSET 0.000000 0.000000 0.000000
										}
									}
								}
								JOINT RThumb
								{
									OFFSET 0.000000 0.000000 0.000000
									CHANNELS 3 Zrotation Yrotation Xrotation
									End Site
									{
										OFFSET 0.000000 0.000000 0.000000
									}
								}
							}
						}
					}
				}
			}
		}
	}
}
}
MOTION
Frames: 12
Frame Time: 0.008333
3.037288 16.839722 5.989689 2.043581 5.243121 15.187366 4.800208 -2.879059 -3.042584 0.349810 -3.379225 -3.251785 -6.493590 -3.440805 1.470298 7.258788 -6.754817 -6.685551 -3.806473 -0.298693 0.244164 0.000000 0.000000 0.000000 -6.211807 5.584292 2.157581 -40.720655 -7.311911 6.098136 -2.548580 -47.198947 -0.008885 11.405637 -0.685495 -0.075170 -0.177122 0.069842 -0.000000 0.000000 0.000000 0.000000 0.000000 0.000000 0.000000 14.686261 -6.345421 1.212602 54.232671 -3.118560 -16.386851 4.350172 4.852693 0.004974 -3.303185 2.640369 -0.080964 0.157532 -0.044354 -0.000000 0.000000 0.000000 0.000000 0.000000 0.000000 0.000000 
3.083693 16.851761 6.150386 1.765352 4.883257 14.949579 5.045091 -2.761928 -2.931385 0.386910 -3.274651 -3.244770 -6.492908 -3.335894 1.426247 7.250743 -6.598211 -6.615913 -3.818404 -0.300263 0.262647 0.000000 0.000000 0.000000 -6.296362 5.594762 2.118617 -41.406546 -7.278606 6.355314 -2.557288 -47.015490 -0.008565 11.183332 -0.636598 -0.068686 -0.174833 0.068516 -0.000000 0.000000 0.000000 0.000000 0.000000 0.000000 0.000000 14.663935 -6.133441 1.221542 54.398111 -3.132527 -16.528933 4.360728 4.609744 0.004530 -3.334845 2.490611 -0.077171 0.157557 -0.044302 -0.000000 0.000000 0.000000 0.000000 0.000000 0.000000 0.000000 
3.125306 16.864714 6.307529 1.520193 4.479320 14.726365 5.208666 -2.646559 -2.798150 0.405030 -3.165198 -3.232115 -6.503632 -3.226242 1.385023 7.283608 -6.416482 -6.548381 -3.832458 -0.301894 0.279986 0.000000 0.000000 0.000000 -6.335035 5.623480 2.086126 -42.123801 -7.242354 6.634326 -2.574595 -46.716514 -0.008266 10.913616 -0.544561 -0.057904 -0.172555 0.066817 -0.000000 0.000000 0.000000 0.000000 0.000000 0.000000 0.000000 14.689726 -5.891263 1.232430 54.651322 -3.048941 -16.594218 4.364821 4.411190 0.004122 -3.353676 2.357325 -0.073476 0.157111 -0.044277 -0.000000 0.000000 0.000000 0.000000 0.000000 0.000000 0.000000 
3.162459 16.878713 6.461418 1.305264 4.037021 14.522574 5.301395 -2.535810 -2.653034 0.406843 -3.055007 -3.217396 -6.525850 -3.116172 1.341306 7.346530 -6.201349 -6.476809 -3.849342 -0.303728 0.298024 0.000000 0.000000 0.000000 -6.347059 5.648325 2.061832 -42.843820 -7.146719 6.937573 -2.597290 -46.356067 -0.007962 10.601698 -0.405231 -0.042927 -0.170184 0.064502 -0.000000 0.000000 0.000000 0.000000 0.000000 0.000000 0.000000 14.752359 -5.611838 1.246327 54.993615 -2.877991 -16.612837 4.362481 4.259141 0.003771 -3.355395 2.247988 -0.070178 0.156180 -0.044404 -0.000000 0.000000 0.000000 0.000000 0.000000 0.000000 0.000000 
3.195172 16.893839 6.612715 1.127820 3.568703 14.350866 5.319918 -2.434466 -2.513779 0.392781 -2.949550 -3.202209 -6.558044 -3.011029 1.302335 7.435718 -5.969730 -6.408490 -3.868475 -0.305662 0.314894 0.000000 0.000000 0.000000 -6.336710 5.694577 2.043913 -43.559074 -7.019592 7.277385 -2.626316 -45.929069 -0.007638 10.252654 -0.232722 -0.025452 -0.167839 0.061658 -0.000000 0.000000 0.000000 0.000000 0.000000 0.000000 0.000000 14.851918 -5.314566 1.259475 55.417472 -2.603106 -16.569838 4.353800 4.154569 0.003501 -3.339555 2.168049 -0.067379 0.154813 -0.044634 -0.000000 0.000000 0.000000 0.000000 0.000000 0.000000 0.000000 
3.223963 16.910317 6.762000 0.986224 3.087707 14.218349 5.274940 -2.345128 -2.394062 0.365784 -2.852888 -3.189348 -6.598689 -2.914891 1.268084 7.541735 -5.726420 -6.343243 -3.890040 -0.307735 0.330791 0.000000 0.000000 0.000000 -6.318204 5.760036 2.031964 -44.257965 -6.848366 7.659107 -2.660654 -45.457025 -0.007280 9.870718 -0.035177 -0.006879 -0.165486 0.058248 -0.000000 0.000000 0.000000 0.000000 0.000000 0.000000 0.000000 14.980685 -5.005938 1.270363 55.916778 -2.230568 -16.476414 4.339306 4.104468 0.003326 -3.300239 2.122872 -0.065276 0.153024 -0.045002 -0.000000 0.000000 0.000000 0.000000 0.000000 0.000000 0.000000 
3.249415 16.928359 6.909913 0.878368 2.609879 14.129793 5.177432 -2.269821 -2.304946 0.328846 -2.768334 -3.180479 -6.645417 -2.831007 1.240608 7.656619 -5.488798 -6.284333 -3.913697 -0.309913 0.344981 0.000000 0.000000 0.000000 -6.300721 5.842972 2.024060 -44.939124 -6.629073 8.082844 -2.699383 -44.951439 -0.006871 9.459138 0.175633 0.011493 -0.163077 0.054305 -0.000000 0.000000 0.000000 0.000000 0.000000 0.000000 0.000000 15.132658 -4.705415 1.277393 56.481365 -1.755958 -16.316168 4.319719 4.115013 0.003259 -3.233904 2.114588 -0.063671 0.150859 -0.045481 -0.000000 0.000000 0.000000 0.000000 0.000000 0.000000 0.000000 
3.272186 16.948205 7.056973 0.801442 2.150021 14.087280 5.039723 -2.209049 -2.255306 0.284899 -2.697630 -3.177747 -6.696139 -2.761144 1.218274 7.772182 -5.251474 -6.229538 -3.939617 -0.312244 0.358154 0.000000 0.000000 0.000000 -6.293391 5.945392 2.020230 -45.603011 -6.368626 8.552123 -2.742579 -44.413617 -0.006419 9.022503 0.388900 0.028466 -0.160622 0.049925 -0.000000 0.000000 0.000000 0.000000 0.000000 0.000000 0.000000 15.299528 -4.407483 1.278721 57.106515 -1.210654 -16.124818 4.296264 4.203027 0.003312 -3.126562 2.146130 -0.062563 0.148302 -0.046132 -0.000000 0.000000 0.000000 0.000000 0.000000 0.000000 0.000000 
3.292920 16.969871 7.203629 0.751937 1.721739 14.088904 4.872953 -2.162422 -2.247671 0.236603 -2.641164 -3.181393 -6.748121 -2.705628 1.201842 7.883044 -5.030330 -6.181409 -3.967118 -0.314668 0.369719 0.000000 0.000000 0.000000 -6.298786 6.061880 2.018382 -46.259822 -6.070763 9.059581 -2.789368 -43.843113 -0.005926 8.564361 0.593845 0.043038 -0.158071 0.045231 -0.000000 0.000000 0.000000 0.000000 0.000000 0.000000 0.000000 15.475545 -4.128700 1.273559 57.782621 -0.600614 -15.881696 4.270181 4.380229 0.003486 -2.971082 2.215441 -0.061351 0.145388 -0.046917 -0.000000 0.000000 0.000000 0.000000 0.000000 0.000000 0.000000 
3.312200 16.993353 7.350183 0.726044 1.334244 14.129852 4.686178 -2.128234 -2.280834 0.185917 -2.597657 -3.191333 -6.799100 -2.663157 1.190407 7.985571 -4.833268 -6.140341 -3.995606 -0.317150 0.379630 0.000000 0.000000 0.000000 -6.316481 6.186003 2.017069 -46.920669 -5.738865 9.594548 -2.838922 -43.236823 -0.005404 8.089147 0.782096 0.054709 -0.155389 0.040352 -0.000000 0.000000 0.000000 0.000000 0.000000 0.000000 0.000000 15.655367 -3.876355 1.261672 58.501950 0.057365 -15.574841 4.242743 4.661756 0.003771 -2.759343 2.317338 -0.059738 0.142136 -0.047811 -0.000000 0.000000 0.000000 0.000000 0.000000 0.000000 0.000000 
3.330426 17.018444 7.496840 0.721318 0.993001 14.203192 4.485733 -2.103470 -2.350443 0.134051 -2.564184 -3.207498 -6.847238 -2.630860 1.180721 8.077905 -4.652729 -6.103052 -4.024592 -0.319685 0.388781 0.000000 0.000000 0.000000 -6.342699 6.313570 2.016338 -47.597960 -5.382856 10.147666 -2.891070 -42.584166 -0.004878 7.601542 0.949115 0.063080 -0.152598 0.035451 -0.000000 0.000000 0.000000 0.000000 0.000000 0.000000 0.000000 15.832931 -3.640442 1.243049 59.261456 0.726138 -15.223556 4.215176 5.068410 0.004162 -2.477885 2.447592 -0.056821 0.138507 -0.048846 -0.000000 0.000000 0.000000 0.000000 0.000000 0.000000 0.000000 
3.347879 17.044857 7.643612 0.735275 0.696210 14.299033 4.274071 -2.084424 -2.446111 0.081299 -2.536589 -3.227428 -6.891138 -2.604458 1.174082 8.162721 -4.518557 -6.074879 -4.053055 -0.322160 0.395750 0.000000 0.000000 0.000000 -6.371029 6.428690 2.012893 -48.303465 -4.995109 10.694996 -2.943450 -41.890033 -0.004361 7.105741 1.094361 0.068548 -0.149598 0.030586 -0.000000 0.000000 0.000000 0.000000 0.000000 0.000000 0.000000 16.011072 -3.450188 1.219416 60.045996 1.418714 -14.727815 4.188046 5.613894 0.004623 -2.134618 2.590276 -0.052102 0.134591 -0.049847 -0.000000 0.000000 0.000000 0.000000 0.000000 0.000000 0.000000 
